<?xml version="1.0" standalone="no"?>
<!DOCTYPE svg PUBLIC "-//W3C//DTD SVG 20010904//EN"
 "http://www.w3.org/TR/2001/REC-SVG-20010904/DTD/svg10.dtd">
<svg version="1.0" xmlns="http://www.w3.org/2000/svg"
 width="4443.000000pt" height="8000.000000pt" viewBox="0 0 4443.000000 8000.000000"
 preserveAspectRatio="xMidYMid meet">

<g transform="translate(0.000000,8000.000000) scale(0.100000,-0.100000)"
fill="#000000" stroke="none">
<path d="M21699 79495 c-2 -1 -67 -6 -144 -9 -707 -32 -1312 -104 -1975 -236
-2045 -407 -4000 -1337 -5570 -2649 -1194 -998 -2195 -2217 -2945 -3586 -526
-960 -940 -2047 -1184 -3107 -168 -728 -253 -1305 -307 -2088 -22 -304 -25
-1128 -6 -1415 33 -501 79 -927 143 -1320 347 -2144 1229 -4128 2577 -5800
754 -935 1600 -1724 2581 -2410 101 -71 195 -138 209 -150 l26 -22 -94 -169
c-171 -310 -245 -427 -400 -643 -323 -446 -537 -686 -867 -971 -394 -341 -851
-618 -1463 -888 -113 -50 -329 -145 -480 -212 -250 -110 -454 -213 -825 -413
-362 -197 -515 -310 -565 -422 -47 -103 -55 -156 -54 -340 3 -545 215 -1131
583 -1615 477 -628 1264 -1178 2391 -1672 316 -139 1064 -429 1405 -545 308
-105 846 -253 1194 -328 91 -20 167 -38 170 -41 6 -6 -23 -686 -50 -1159 -10
-192 -24 -440 -29 -550 -26 -506 -121 -1678 -195 -2394 -475 -4578 -1471
-8190 -3068 -11116 -213 -391 -422 -747 -556 -945 -297 -443 -755 -987 -1471
-1750 -437 -465 -966 -1038 -1146 -1240 -1051 -1184 -1590 -2036 -1794 -2839
-16 -64 -46 -204 -65 -311 -20 -107 -58 -303 -86 -435 -56 -271 -92 -470 -113
-626 -61 -440 -101 -1190 -113 -2147 l-6 -513 -81 -78 c-209 -202 -731 -665
-1491 -1321 -1326 -1144 -1910 -1674 -2505 -2270 -944 -945 -1504 -1664 -1879
-2410 -159 -317 -249 -564 -326 -895 -21 -88 -73 -299 -116 -470 -157 -619
-208 -932 -225 -1381 -3 -93 -10 -205 -14 -249 -10 -102 -9 -754 1 -860 4 -44
10 -183 14 -310 3 -126 8 -255 10 -285 2 -30 7 -113 10 -185 14 -309 51 -772
80 -995 49 -380 82 -471 240 -665 l45 -55 -77 -138 c-110 -197 -259 -496 -284
-570 l-21 -64 6 -1287 c3 -707 9 -1497 12 -1755 l6 -469 76 -111 c378 -558
1052 -1113 1907 -1571 927 -496 1642 -808 2570 -1121 679 -229 2047 -641 2750
-829 2524 -672 5181 -1098 8495 -1360 159 -13 860 -61 1015 -70 50 -3 164 -10
255 -15 223 -13 901 -48 1080 -55 80 -3 195 -8 255 -10 187 -9 967 -34 1465
-47 595 -16 2082 -16 2710 0 518 14 1282 39 1425 47 50 3 162 7 250 10 167 6
1012 51 1125 60 36 2 106 7 155 10 287 17 561 37 990 70 33 2 94 7 135 10 41
3 206 17 365 30 160 14 317 27 350 30 405 34 1447 144 2035 215 3041 367 5439
850 7599 1532 1405 443 2713 1020 3816 1683 191 115 940 597 1170 752 432 293
743 572 961 862 l94 125 -1 676 c-2 1120 -17 2477 -28 2580 -9 72 -19 109 -43
155 -17 33 -113 219 -214 413 l-184 353 49 73 c257 380 320 587 366 1191 20
260 20 840 0 1120 -17 253 -21 313 -40 660 -25 453 -65 982 -86 1145 -56 441
-234 1337 -326 1640 -333 1099 -1282 2287 -3038 3801 -474 409 -807 682 -1795
1473 -723 578 -1152 926 -1370 1110 -82 70 -114 103 -110 114 9 31 0 651 -15
1022 -47 1178 -95 1682 -211 2250 -30 146 -82 399 -114 564 -91 457 -163 680
-330 1021 -264 539 -655 1072 -1334 1820 -225 248 -419 448 -1196 1230 -1258
1266 -1531 1593 -2027 2420 -380 635 -737 1328 -1068 2075 -1035 2337 -1802
5356 -2260 8900 -82 637 -187 1595 -235 2140 -11 129 -22 260 -25 290 -20 219
-68 839 -80 1030 -3 52 -8 120 -10 150 -24 326 -28 458 -15 594 16 173 10 257
-24 359 -16 47 -26 100 -26 135 l0 57 193 49 c773 197 1409 411 2055 693 1096
477 1923 994 2510 1567 509 497 792 978 893 1521 41 218 37 559 -8 725 -61
227 -158 344 -468 565 -275 196 -455 288 -980 500 -578 233 -871 367 -1145
525 -838 482 -1480 1157 -2028 2131 l-32 56 133 94 c811 576 1578 1278 2246
2058 537 627 1046 1365 1445 2096 766 1402 1236 2855 1435 4430 60 469 82 817
88 1376 6 499 -2 765 -32 1142 -129 1602 -542 3106 -1240 4516 -524 1059
-1154 1983 -1954 2866 -286 316 -769 786 -1101 1071 -1924 1652 -4310 2680
-6810 2933 -439 45 -752 62 -1206 67 -199 1 -363 1 -365 -1z m4156 -4114 c133
-5 218 -13 255 -24 30 -9 134 -23 230 -32 213 -20 353 -53 660 -158 25 -9 68
-22 95 -30 28 -8 95 -31 150 -51 124 -45 126 -45 114 -4 -5 17 -7 33 -5 35 1
2 23 -4 47 -13 24 -9 105 -37 179 -64 74 -26 169 -62 210 -80 41 -17 138 -55
215 -85 77 -29 186 -76 243 -104 56 -28 104 -51 106 -51 8 0 341 -193 357
-206 19 -17 33 -18 23 -2 -13 21 21 1 153 -86 171 -114 390 -282 558 -426 55
-47 143 -120 196 -162 53 -42 122 -106 155 -144 32 -37 79 -90 105 -118 59
-66 254 -297 304 -361 22 -27 48 -59 57 -70 10 -11 29 -33 43 -50 l25 -30 -15
50 c-15 52 -13 68 8 43 126 -162 212 -284 256 -363 18 -33 39 -67 46 -75 7 -8
27 -42 45 -75 42 -81 84 -148 125 -202 19 -25 35 -52 35 -59 0 -12 24 -65 111
-250 10 -22 19 -44 19 -48 0 -4 11 -32 25 -62 14 -30 25 -57 25 -61 0 -3 18
-52 39 -107 85 -220 191 -546 195 -600 2 -17 11 -63 22 -103 l18 -72 -33 -79
-32 -79 14 -74 c7 -41 10 -86 6 -101 -4 -14 -2 -60 4 -102 11 -73 10 -77 -18
-135 -15 -33 -34 -62 -40 -65 -9 -3 -11 -19 -8 -48 5 -42 4 -45 -36 -71 -36
-24 -41 -32 -41 -67 0 -21 -5 -42 -10 -45 -7 -4 -10 -41 -8 -92 l3 -86 -40
-21 c-37 -20 -40 -24 -43 -69 -3 -43 -6 -49 -38 -64 -31 -15 -34 -21 -34 -60
0 -34 -5 -46 -24 -59 -19 -12 -26 -26 -28 -57 -2 -34 -9 -45 -35 -62 -22 -14
-33 -29 -35 -50 -3 -25 -9 -31 -40 -39 -33 -8 -38 -13 -38 -38 0 -21 -6 -31
-24 -38 -17 -6 -26 -18 -28 -37 -2 -23 -10 -30 -40 -37 -31 -8 -37 -14 -40
-39 -2 -24 -10 -32 -38 -41 -27 -8 -36 -17 -38 -38 -2 -18 -11 -28 -27 -32
-16 -4 -26 -16 -30 -35 -5 -23 -15 -33 -41 -41 -26 -9 -36 -19 -41 -40 -4 -23
-13 -30 -42 -37 -28 -7 -37 -14 -39 -33 -2 -14 -9 -29 -16 -35 -7 -5 -16 -23
-20 -38 -7 -28 -10 -31 -57 -41 -19 -4 -29 -15 -35 -38 -8 -27 -16 -34 -44
-38 -25 -4 -36 -11 -38 -25 -2 -11 -8 -38 -14 -60 -10 -37 -12 -38 -18 -15 -5
21 -9 14 -20 -36 l-14 -62 -80 -19 -80 -19 -8 -39 c-9 -40 -28 -72 -28 -45 0
26 -17 -4 -30 -53 -14 -51 -22 -58 -67 -60 -16 -1 -30 -5 -33 -8 -3 -3 -23
-10 -45 -15 -33 -8 -41 -15 -49 -42 -5 -18 -15 -32 -22 -32 -8 0 -20 -16 -28
-35 -13 -29 -21 -36 -56 -41 -35 -6 -44 -13 -61 -45 -13 -26 -26 -39 -40 -39
-12 0 -28 -13 -40 -35 -12 -19 -27 -35 -35 -35 -8 0 -21 -14 -29 -32 -12 -29
-17 -32 -52 -30 -33 2 -40 -1 -55 -28 -14 -25 -23 -30 -55 -30 -32 0 -41 -5
-55 -30 -9 -17 -24 -30 -32 -30 -8 0 -23 -13 -33 -30 -12 -22 -25 -30 -45 -30
-18 0 -33 -8 -44 -25 -13 -20 -25 -25 -55 -25 -30 0 -42 -5 -55 -25 -9 -14
-24 -25 -34 -25 -10 0 -25 -11 -34 -25 -11 -17 -26 -25 -46 -25 -21 0 -36 -8
-52 -30 -14 -19 -31 -30 -47 -30 -13 0 -33 -7 -43 -17 -14 -13 -18 -13 -18 -2
0 8 -22 -10 -48 -40 -50 -56 -82 -65 -82 -21 0 27 -11 25 -34 -5 -13 -18 -28
-25 -51 -25 -21 0 -39 -8 -55 -25 -13 -14 -31 -25 -40 -25 -9 0 -29 -13 -45
-30 -22 -23 -38 -30 -65 -30 -26 0 -43 -7 -60 -25 -16 -17 -34 -25 -59 -25
-25 -1 -47 -10 -71 -30 -19 -17 -40 -30 -48 -30 -7 0 -30 -11 -50 -25 -22 -15
-51 -25 -73 -25 -22 0 -47 -9 -65 -22 -21 -17 -47 -24 -100 -29 -64 -5 -80
-11 -153 -57 -70 -44 -89 -52 -130 -52 -35 0 -65 -9 -107 -31 l-59 -31 -3 31
c-3 28 -6 30 -30 25 -15 -3 -70 -26 -122 -49 -121 -54 -159 -65 -241 -65 -43
0 -95 -9 -150 -26 -71 -22 -108 -27 -233 -31 -85 -2 -152 0 -155 5 -4 6 -62 3
-144 -6 -126 -14 -152 -14 -285 1 -80 9 -148 21 -151 26 -4 5 -51 15 -106 20
-207 22 -266 31 -350 50 -48 12 -141 26 -208 32 -103 9 -138 17 -221 50 -54
21 -112 39 -130 39 -17 0 -69 18 -116 40 -55 26 -99 40 -125 40 -23 0 -56 8
-75 18 -49 26 -113 63 -125 72 -5 4 -34 13 -63 19 -67 14 -75 18 -174 94 -116
90 -127 96 -193 109 -45 9 -69 20 -100 48 -22 21 -55 41 -73 45 -36 7 -92 50
-92 69 0 7 -8 17 -19 22 -10 5 -46 41 -80 81 -57 66 -66 73 -116 83 -39 8 -58
18 -70 36 -28 43 -54 64 -79 64 -16 0 -31 12 -50 40 -14 22 -33 40 -41 40 -8
0 -21 15 -30 34 -12 26 -25 36 -50 40 -24 5 -40 17 -55 42 -12 19 -37 41 -55
48 -19 8 -41 28 -49 45 -9 16 -24 32 -34 35 -10 3 -24 22 -31 41 -9 27 -20 37
-41 41 -19 4 -34 18 -47 43 -14 28 -28 38 -58 46 -31 8 -41 16 -54 47 -9 21
-22 38 -29 38 -7 0 -20 16 -28 35 -9 22 -23 37 -39 41 -16 4 -28 17 -35 39 -8
24 -18 34 -40 38 -24 5 -30 13 -36 42 -3 19 -12 35 -19 35 -8 0 -19 15 -25 34
-9 28 -18 36 -48 43 -30 7 -39 15 -48 43 -7 23 -21 38 -37 44 -18 7 -27 19
-32 43 -3 18 -12 33 -19 33 -8 0 -17 15 -20 34 -5 27 -14 36 -46 49 -32 12
-40 20 -40 41 0 21 -7 27 -40 37 -33 10 -41 17 -46 45 -3 18 -12 35 -20 38 -8
3 -14 19 -14 36 0 23 -6 33 -25 42 -16 7 -27 22 -31 43 -4 25 -13 34 -40 44
-24 9 -36 20 -40 39 -3 15 -9 35 -15 44 -5 10 -9 28 -9 41 0 19 -9 28 -40 40
-35 14 -40 19 -40 49 -1 26 -7 37 -33 53 -28 17 -32 27 -35 67 -2 25 -9 52
-17 58 -9 7 -12 23 -8 44 4 28 0 36 -31 60 -32 24 -36 32 -36 72 0 24 -3 44
-7 44 -5 1 -19 10 -32 21 -20 16 -24 29 -23 59 2 21 -2 41 -8 45 -5 3 -10 26
-10 50 0 37 -4 47 -31 66 -28 20 -31 26 -26 61 5 34 2 41 -28 64 -30 23 -32
27 -24 62 5 24 4 39 -3 43 -7 4 -9 21 -5 43 5 31 2 39 -25 61 -26 22 -30 31
-25 61 5 30 2 37 -25 57 -27 20 -29 26 -25 64 3 30 0 43 -9 47 -17 6 -18 51
-3 110 9 37 8 49 -11 89 -21 45 -21 49 -6 107 14 59 14 63 -6 106 -21 43 -21
44 -4 100 15 46 16 61 6 85 -10 24 -10 39 5 84 16 53 16 57 -3 95 -19 39 -19
40 1 98 20 55 20 60 4 91 -21 42 -21 42 2 94 23 51 35 89 55 182 16 71 61 169
130 283 32 55 63 144 90 263 5 25 102 175 138 213 10 11 18 23 18 27 0 4 29
44 64 88 35 44 70 98 77 118 6 21 37 92 69 158 54 115 62 126 176 243 65 68
127 138 136 156 9 17 60 70 113 117 128 111 126 108 184 224 51 99 52 101 152
174 98 71 102 76 141 156 38 80 43 85 122 138 100 68 307 186 465 267 64 32
125 68 136 78 37 34 225 124 365 174 89 32 206 67 350 104 522 136 663 166
959 204 93 12 169 27 177 34 7 8 53 16 111 20 54 4 130 14 168 21 39 7 81 11
95 8 14 -2 115 -8 225 -12z m-13475 -1525 c0 -2 -8 -10 -17 -17 -16 -13 -17
-12 -4 4 13 16 21 21 21 13z m-66 -93 c-60 -94 -87 -133 -92 -133 -2 0 4 12
14 28 60 93 87 132 92 132 2 0 -4 -12 -14 -27z m-129 -199 c-61 -94 -218 -361
-218 -371 0 -7 -4 -13 -9 -13 -5 0 -6 -4 -3 -10 3 -5 0 -10 -7 -11 -7 0 -3 -5
10 -11 26 -13 26 -13 6 -69 -8 -24 -17 -73 -19 -109 -1 -36 -6 -77 -10 -92 -6
-22 -4 -28 10 -28 12 0 15 -5 9 -22 -4 -13 -8 -59 -10 -103 -1 -44 -8 -107
-15 -139 -11 -50 -10 -60 2 -70 12 -9 14 -27 8 -96 -5 -67 -4 -87 7 -96 18
-14 17 -42 -1 -74 -16 -29 -20 -106 -5 -115 6 -3 10 -30 10 -58 0 -40 -4 -55
-19 -64 -21 -13 -36 -85 -22 -111 14 -27 -29 -247 -62 -319 -8 -17 -7 -30 2
-47 11 -19 10 -48 -4 -162 -10 -77 -23 -155 -30 -175 -7 -19 -11 -47 -8 -61 3
-14 -2 -84 -10 -154 -32 -262 -58 -653 -46 -676 15 -28 10 -118 -12 -222 -13
-62 -19 -116 -15 -145 3 -25 8 -68 12 -96 7 -53 -7 -255 -34 -495 -10 -92 -16
-236 -17 -395 0 -137 -5 -378 -10 -535 -6 -157 -10 -420 -9 -585 0 -165 1
-547 2 -848 2 -470 0 -557 -13 -609 -12 -44 -15 -87 -11 -157 11 -206 16 -488
9 -520 -5 -19 -1 -124 10 -250 16 -192 20 -310 15 -421 -1 -19 6 -100 16 -179
15 -114 16 -145 6 -151 -7 -4 -9 -13 -5 -21 13 -20 15 -309 2 -362 -8 -36 -8
-71 1 -144 11 -86 11 -103 -5 -144 -16 -46 -16 -50 4 -117 18 -57 19 -77 11
-116 -7 -33 -6 -78 1 -145 7 -61 8 -107 3 -122 -11 -27 8 -258 33 -429 9 -58
16 -146 16 -196 -1 -57 9 -142 24 -225 14 -74 25 -161 25 -194 0 -42 6 -73 21
-100 24 -47 29 -126 10 -173 -8 -18 -10 -39 -6 -49 5 -10 9 -20 9 -23 1 -3 4
-9 7 -15 4 -5 9 -64 13 -130 4 -66 9 -160 12 -210 5 -102 22 -222 34 -245 5
-9 18 -67 29 -130 12 -63 23 -125 26 -138 4 -22 118 -222 175 -307 14 -22 37
-58 49 -80 52 -91 -20 14 -110 160 -370 600 -720 1304 -961 1930 -379 987
-623 2003 -727 3038 -47 459 -56 654 -56 1207 0 578 12 814 65 1305 190 1745
775 3438 1703 4923 48 78 91 142 94 142 3 0 -2 -12 -12 -26z m134 -12876 c50
-76 89 -138 86 -138 -4 0 -170 244 -190 280 -24 43 22 -20 104 -142z m152
-225 c13 -16 12 -17 -3 -4 -10 7 -18 15 -18 17 0 8 8 3 21 -13z m19159 -7744
c52 1 136 -3 185 -9 50 -6 122 -13 160 -16 39 -3 77 -8 85 -11 8 -3 49 -9 90
-14 237 -26 241 -27 260 -49 18 -21 18 -22 -6 -57 -13 -20 -24 -41 -24 -48 0
-6 -18 -31 -40 -56 -22 -24 -45 -56 -51 -71 -6 -16 -15 -28 -20 -28 -5 0 -9
-4 -9 -10 0 -12 -96 -109 -145 -145 -45 -33 -102 -78 -125 -99 -15 -14 -100
-65 -170 -102 l-39 -21 34 -51 c28 -41 31 -51 17 -50 -9 1 -57 -18 -107 -41
-49 -23 -103 -48 -120 -55 -16 -7 -86 -38 -155 -69 -114 -51 -197 -84 -485
-199 -55 -22 -188 -71 -295 -110 -107 -39 -204 -73 -215 -78 -69 -26 -355
-116 -490 -155 -88 -26 -189 -56 -225 -67 -36 -11 -121 -35 -190 -53 -69 -18
-188 -52 -265 -75 -132 -40 -217 -63 -345 -94 -30 -7 -147 -37 -260 -66 -113
-29 -243 -61 -290 -70 -47 -10 -154 -34 -239 -54 -84 -20 -201 -46 -260 -57
-58 -11 -167 -34 -241 -49 -164 -36 -540 -107 -595 -114 -22 -3 -148 -23 -280
-46 -244 -41 -435 -71 -581 -90 -44 -6 -91 -13 -105 -15 -13 -3 -42 -7 -64
-10 -22 -3 -53 -7 -70 -9 -16 -2 -59 -7 -95 -11 -36 -4 -126 -15 -200 -25
-125 -17 -252 -32 -405 -46 -33 -3 -78 -7 -100 -9 -35 -4 -125 -13 -305 -30
-138 -13 -573 -45 -750 -55 -107 -6 -225 -15 -262 -19 l-68 -7 -6 32 -6 32
-71 -4 c-331 -20 -544 -26 -1012 -29 -488 -2 -893 5 -1000 19 -22 3 -71 12
-110 20 -38 8 -93 17 -121 20 -28 3 -57 7 -65 10 -8 2 -27 7 -44 11 -25 6 -14
12 90 46 66 22 145 46 175 55 52 14 329 38 575 50 61 2 162 9 225 14 270 23
368 30 595 40 132 6 332 18 444 26 229 16 307 17 314 7 2 -5 2 -2 1 5 -2 6 0
12 4 12 5 0 15 15 24 33 8 17 52 77 97 131 45 54 90 111 101 125 11 14 17 18
14 9 -4 -13 -1 -18 12 -18 31 0 445 29 494 35 25 2 72 7 105 10 54 5 355 38
590 65 50 5 99 12 111 15 11 2 43 7 70 10 27 3 76 9 109 14 33 6 112 17 175
26 63 9 178 28 255 41 77 14 184 32 238 41 64 10 94 19 85 25 -8 5 5 6 32 2
35 -4 42 -3 30 6 -12 9 -5 10 30 5 25 -3 40 -3 33 2 -7 5 52 20 150 37 712
123 1670 342 2352 537 254 73 497 153 481 159 -14 5 -14 7 4 20 11 8 20 20 20
27 0 7 5 13 11 13 5 0 8 4 5 8 -3 5 3 18 13 28 9 11 16 25 13 32 -2 8 2 10 14
5 13 -5 16 -3 11 10 -4 11 -1 17 9 17 8 0 12 4 9 10 -3 5 3 19 14 31 11 12 18
26 15 31 -3 4 0 8 5 8 6 0 11 7 11 15 0 8 9 15 21 15 11 0 17 5 14 10 -3 6 1
10 9 10 9 0 16 7 16 15 0 8 5 15 11 15 6 0 9 7 5 15 -3 9 0 15 9 15 8 0 15 7
15 15 0 8 7 15 15 15 8 0 15 7 15 15 0 8 7 15 15 15 8 0 15 7 15 15 0 8 9 15
20 15 11 0 24 8 27 17 10 26 36 53 50 53 7 0 13 7 13 15 0 8 9 15 19 15 11 0
26 7 35 15 8 8 19 15 24 15 5 0 17 9 27 20 10 11 24 20 31 20 7 0 17 6 21 13
4 7 20 18 36 24 15 7 27 17 27 23 0 5 8 10 18 10 11 0 27 9 38 21 12 13 26 18
40 15 13 -4 27 0 34 10 7 8 19 13 26 10 7 -3 18 2 25 10 7 9 21 13 30 11 18
-5 82 13 95 26 4 4 22 7 40 7 18 0 36 5 39 11 4 5 12 8 18 6 7 -2 20 2 29 11
12 9 45 16 90 19 106 6 130 9 273 44 57 13 145 30 180 34 157 19 198 25 203
29 2 3 86 3 186 -1 100 -3 224 -5 276 -4z m-5437 -1696 c-7 -2 -19 -2 -25 0
-7 3 -2 5 12 5 14 0 19 -2 13 -5z m-10106 -10655 c-3 -8 -6 -5 -6 6 -1 11 2
17 5 13 3 -3 4 -12 1 -19z m-30 -180 c-3 -8 -6 -5 -6 6 -1 11 2 17 5 13 3 -3
4 -12 1 -19z m-10 -60 c-3 -8 -6 -5 -6 6 -1 11 2 17 5 13 3 -3 4 -12 1 -19z
m-20 -110 c-3 -8 -6 -5 -6 6 -1 11 2 17 5 13 3 -3 4 -12 1 -19z m-10 -60 c-3
-8 -6 -5 -6 6 -1 11 2 17 5 13 3 -3 4 -12 1 -19z m-10 -60 c-3 -7 -5 -2 -5 12
0 14 2 19 5 13 2 -7 2 -19 0 -25z m-10 -50 c-3 -8 -6 -5 -6 6 -1 11 2 17 5 13
3 -3 4 -12 1 -19z m-10 -60 c-3 -7 -5 -2 -5 12 0 14 2 19 5 13 2 -7 2 -19 0
-25z m-10 -50 c-3 -8 -6 -5 -6 6 -1 11 2 17 5 13 3 -3 4 -12 1 -19z m-10 -60
c-3 -7 -5 -2 -5 12 0 14 2 19 5 13 2 -7 2 -19 0 -25z m-10 -50 c-3 -8 -6 -5
-6 6 -1 11 2 17 5 13 3 -3 4 -12 1 -19z m-10 -60 c-3 -7 -5 -2 -5 12 0 14 2
19 5 13 2 -7 2 -19 0 -25z m-10 -50 c-3 -7 -5 -2 -5 12 0 14 2 19 5 13 2 -7 2
-19 0 -25z m-10 -50 c-3 -8 -6 -5 -6 6 -1 11 2 17 5 13 3 -3 4 -12 1 -19z
m-10 -60 c-3 -7 -5 -2 -5 12 0 14 2 19 5 13 2 -7 2 -19 0 -25z m-10 -50 c-3
-7 -5 -2 -5 12 0 14 2 19 5 13 2 -7 2 -19 0 -25z m-10 -50 c-3 -8 -6 -5 -6 6
-1 11 2 17 5 13 3 -3 4 -12 1 -19z m-10 -50 c-3 -8 -6 -5 -6 6 -1 11 2 17 5
13 3 -3 4 -12 1 -19z m-10 -60 c-3 -7 -5 -2 -5 12 0 14 2 19 5 13 2 -7 2 -19
0 -25z m-10 -50 c-3 -7 -5 -2 -5 12 0 14 2 19 5 13 2 -7 2 -19 0 -25z m-10
-50 c-3 -7 -5 -2 -5 12 0 14 2 19 5 13 2 -7 2 -19 0 -25z m-10 -50 c-3 -7 -5
-2 -5 12 0 14 2 19 5 13 2 -7 2 -19 0 -25z m-10 -50 c-3 -7 -5 -2 -5 12 0 14
2 19 5 13 2 -7 2 -19 0 -25z m-10 -50 c-3 -7 -5 -2 -5 12 0 14 2 19 5 13 2 -7
2 -19 0 -25z m-10 -50 c-3 -7 -5 -2 -5 12 0 14 2 19 5 13 2 -7 2 -19 0 -25z
m-10 -50 c-3 -7 -5 -2 -5 12 0 14 2 19 5 13 2 -7 2 -19 0 -25z m-10 -50 c-3
-7 -5 -2 -5 12 0 14 2 19 5 13 2 -7 2 -19 0 -25z m-10 -50 c-3 -7 -5 -2 -5 12
0 14 2 19 5 13 2 -7 2 -19 0 -25z m-10 -50 c-3 -7 -5 -2 -5 12 0 14 2 19 5 13
2 -7 2 -19 0 -25z m-18 -87 c-6 -34 -14 -60 -16 -57 -2 2 1 32 8 65 6 34 14
60 16 57 2 -2 -1 -32 -8 -65z m-34 -166 c-10 -47 -20 -83 -22 -81 -3 2 3 43
13 90 10 47 20 83 22 81 3 -2 -3 -43 -13 -90z m-60 -275 c-21 -93 -40 -168
-42 -166 -3 2 12 81 33 175 21 94 40 169 42 166 2 -2 -13 -81 -33 -175z m-50
-217 c-10 -59 -161 -695 -194 -820 -16 -61 -27 -114 -24 -117 3 -3 1 -12 -5
-19 -7 -8 -10 -16 -7 -18 4 -5 -45 -294 -101 -589 -8 -41 -16 -91 -18 -110
-27 -215 -108 -598 -181 -850 -19 -63 -47 -169 -63 -235 -17 -66 -35 -131 -40
-145 -5 -14 -10 -28 -11 -33 -2 -19 -13 -64 -21 -87 -8 -23 -83 -284 -115
-395 -7 -27 -37 -126 -65 -220 -29 -93 -54 -179 -56 -190 -3 -19 -85 -263
-134 -400 -31 -90 -144 -373 -207 -520 -31 -71 -62 -147 -69 -168 -8 -21 -33
-77 -55 -125 -73 -153 -109 -232 -108 -237 0 -3 -25 -57 -56 -121 -30 -63 -55
-118 -55 -123 0 -5 -11 -25 -25 -45 -13 -20 -22 -36 -20 -36 7 0 -46 -102 -63
-122 -8 -10 -11 -18 -6 -18 5 0 5 -4 -1 -8 -5 -4 -52 -90 -103 -192 -109 -215
-157 -308 -194 -370 -14 -25 -49 -91 -77 -148 -29 -56 -65 -122 -81 -146 -17
-24 -30 -47 -30 -52 0 -7 -12 -28 -138 -226 -34 -53 -62 -100 -62 -104 0 -4
-10 -21 -23 -38 -12 -17 -48 -71 -78 -121 -197 -319 -279 -449 -326 -515 -29
-41 -74 -106 -101 -145 -57 -82 -288 -408 -364 -514 -29 -40 -84 -112 -121
-160 -38 -47 -79 -99 -90 -115 -12 -15 -38 -47 -57 -71 -19 -24 -43 -54 -52
-67 -10 -12 -25 -32 -33 -43 -71 -94 -92 -122 -98 -135 -4 -8 -22 -34 -39 -57
-107 -139 -164 -212 -258 -326 -58 -71 -125 -154 -150 -186 -25 -31 -65 -82
-90 -112 -25 -30 -54 -66 -65 -81 -11 -14 -46 -58 -77 -96 -32 -38 -58 -72
-58 -75 0 -3 -9 -16 -20 -29 -11 -12 -49 -61 -85 -108 -119 -155 -391 -497
-565 -712 -30 -38 -86 -109 -125 -159 -38 -50 -86 -109 -106 -132 -59 -70
-248 -317 -286 -373 -19 -29 -46 -60 -59 -69 -13 -8 -32 -32 -42 -53 -42 -87
-95 -173 -112 -182 -10 -5 -23 -23 -28 -39 -6 -16 -22 -37 -35 -46 -14 -9 -32
-34 -41 -56 -9 -21 -20 -39 -26 -39 -6 0 -15 -11 -21 -24 -6 -13 -21 -28 -34
-34 -12 -6 -29 -24 -36 -41 -8 -17 -20 -31 -26 -31 -7 0 -13 -7 -13 -15 0 -8
-7 -15 -15 -15 -8 0 -15 -6 -15 -14 0 -8 -9 -17 -19 -21 -11 -3 -23 -15 -26
-26 -4 -10 -10 -19 -15 -19 -5 0 -11 -9 -15 -19 -3 -11 -21 -26 -39 -35 -18
-9 -39 -22 -46 -31 -7 -8 -17 -15 -23 -15 -5 0 -24 -15 -43 -32 -55 -55 -83
-78 -93 -78 -6 0 -22 -12 -36 -27 -14 -15 -25 -24 -25 -19 0 4 -13 -6 -29 -23
-16 -17 -34 -31 -39 -31 -6 0 -26 -9 -45 -20 -31 -18 -37 -30 -52 -91 -10 -38
-19 -68 -22 -65 -9 8 78 323 141 511 134 398 289 712 478 967 81 110 464 577
888 1083 984 1175 1287 1545 1617 1970 969 1252 1661 2409 2234 3733 392 907
729 1891 1044 3052 70 259 229 894 286 1143 18 81 35 147 37 147 2 0 1 -17 -3
-37z m16807 -10603 c26 -53 160 -250 170 -250 5 0 -7 30 -26 67 -41 77 -41 98
0 26 46 -82 76 -123 106 -144 15 -11 28 -17 28 -13 0 4 -25 54 -55 111 -30 57
-55 106 -55 108 0 3 7 2 15 -1 17 -7 70 -87 149 -222 27 -46 50 -81 53 -78 2
2 -21 52 -52 111 -31 59 -54 110 -51 112 8 9 94 -67 115 -101 11 -17 30 -51
44 -76 70 -130 131 -210 159 -210 4 0 24 -16 45 -35 67 -62 68 -51 7 80 -50
108 -55 137 -7 47 75 -141 88 -161 109 -165 21 -4 21 -3 7 32 -9 20 -24 53
-34 74 -11 20 -16 37 -11 37 17 0 62 -58 98 -125 45 -88 64 -118 70 -112 2 2
-12 39 -31 82 -20 43 -34 80 -32 82 3 2 17 1 31 -3 18 -4 34 -20 47 -45 15
-30 25 -39 44 -39 20 0 30 -10 47 -45 26 -53 44 -61 22 -10 -18 44 -18 45 6
45 24 0 24 3 5 40 -9 17 -12 30 -8 30 5 0 27 -36 51 -80 24 -44 49 -80 57 -80
19 0 19 4 -1 41 -8 17 -13 33 -10 36 10 10 27 -9 43 -48 14 -37 17 -39 58 -39
36 0 45 -4 50 -21 6 -18 13 -20 41 -16 33 6 36 4 56 -38 21 -43 45 -52 35 -14
-7 25 9 24 23 -1 15 -29 33 -25 26 5 -8 32 7 33 22 1 8 -18 16 -22 34 -19 19
4 27 -1 36 -21 9 -21 19 -26 46 -26 25 0 38 -6 46 -19 8 -17 15 -18 42 -10 18
5 34 9 35 9 1 0 6 -15 11 -32 9 -36 39 -47 33 -13 -3 19 -2 19 16 2 26 -23 33
-22 34 6 1 20 2 20 13 -6 16 -36 34 -48 63 -40 17 4 23 1 23 -11 0 -9 8 -16
20 -16 11 0 23 -7 26 -15 4 -8 10 -15 15 -15 5 0 9 7 9 15 0 8 5 15 10 15 6 0
10 -7 10 -15 0 -8 5 -15 10 -15 6 0 10 -13 10 -29 0 -38 17 -49 29 -19 8 20
10 21 16 6 4 -10 16 -18 26 -18 10 0 19 -7 19 -15 0 -27 38 -55 75 -55 24 0
35 -5 35 -15 0 -8 5 -15 10 -15 6 0 10 -5 10 -11 0 -5 -4 -7 -10 -4 -5 3 -10
1 -10 -4 0 -6 12 -11 26 -11 22 0 25 -4 21 -20 -4 -17 -2 -20 15 -14 18 5 20
3 14 -19 -3 -14 -9 -32 -12 -41 -3 -9 -1 -16 5 -16 6 0 11 9 11 20 0 34 25 22
26 -12 1 -18 6 -34 13 -36 6 -2 11 -12 11 -22 0 -10 4 -20 9 -22 13 -5 24 -48
12 -48 -6 0 -11 -4 -11 -10 0 -5 9 -10 20 -10 11 0 20 -6 20 -14 0 -8 4 -16
10 -18 5 -1 11 -16 12 -33 1 -16 6 -33 11 -36 5 -4 4 -16 -3 -28 -9 -17 -8
-31 1 -59 7 -20 12 -47 11 -59 -1 -13 3 -23 8 -23 5 0 7 -7 4 -15 -4 -8 -1
-15 5 -15 6 0 9 -13 7 -30 -2 -16 1 -30 6 -30 6 0 8 -9 5 -20 -3 -11 -2 -20 2
-20 4 0 7 -18 7 -39 0 -28 -3 -36 -11 -28 -5 7 -9 10 -8 8 2 -2 -2 -10 -8 -18
-8 -9 -8 -13 -1 -13 12 0 10 -39 -2 -59 -5 -8 -3 -16 4 -21 10 -6 8 -15 -9
-36 -13 -17 -18 -30 -12 -32 6 -2 11 -8 11 -13 0 -4 -7 -6 -16 -2 -11 4 -15 1
-13 -13 2 -10 0 -24 -4 -31 -4 -6 -3 -15 3 -18 8 -5 7 -11 -1 -21 -6 -8 -8
-14 -4 -14 4 0 2 -7 -6 -16 -10 -13 -10 -17 0 -24 10 -5 10 -9 2 -15 -7 -3 -9
-15 -6 -26 4 -11 2 -19 -4 -19 -6 0 -11 -7 -11 -15 0 -8 -7 -15 -15 -15 -18 0
-20 -17 -2 -23 9 -3 9 -7 0 -17 -6 -7 -9 -19 -6 -26 3 -10 0 -12 -10 -8 -20 7
-32 -13 -17 -31 15 -18 4 -36 -16 -28 -13 5 -15 1 -10 -15 4 -12 2 -24 -6 -29
-30 -19 -40 -41 -28 -63 10 -18 9 -21 -7 -18 -13 2 -17 -3 -16 -19 2 -15 -3
-23 -12 -23 -8 0 -15 -6 -15 -14 0 -7 -7 -19 -15 -26 -8 -7 -15 -21 -15 -32 0
-10 -7 -21 -15 -24 -8 -4 -12 -10 -9 -15 3 -6 -6 -25 -20 -44 -14 -18 -26 -38
-26 -44 0 -5 -13 -19 -29 -31 -17 -11 -33 -30 -36 -41 -4 -13 -12 -18 -21 -15
-9 3 -18 -2 -21 -12 -7 -16 -155 -167 -171 -174 -4 -2 -18 -18 -31 -36 -14
-20 -29 -31 -37 -28 -9 3 -16 -4 -20 -19 -4 -14 -11 -22 -19 -18 -8 2 -20 -5
-27 -17 -7 -11 -36 -34 -64 -50 -28 -16 -59 -39 -69 -50 -10 -11 -23 -20 -29
-20 -6 0 -22 -9 -36 -20 -14 -11 -31 -20 -37 -20 -7 0 -43 -19 -80 -42 -108
-66 -151 -88 -168 -88 -10 0 -37 -14 -62 -31 -69 -46 -174 -102 -180 -95 -3 3
-45 -15 -93 -39 -48 -25 -93 -45 -100 -45 -7 0 -27 -9 -44 -19 -17 -11 -60
-29 -96 -41 -35 -12 -82 -32 -105 -45 -22 -13 -60 -29 -85 -35 -25 -7 -61 -20
-80 -30 -19 -10 -62 -27 -95 -38 -33 -11 -98 -35 -145 -52 -47 -17 -97 -33
-112 -35 -15 -3 -50 -16 -78 -29 -28 -14 -57 -23 -64 -20 -7 3 -36 -4 -65 -16
-28 -11 -60 -20 -71 -20 -10 0 -39 -11 -64 -24 -24 -13 -65 -27 -91 -30 -26
-4 -65 -14 -87 -22 -22 -8 -56 -14 -75 -14 -19 0 -68 -12 -110 -26 -41 -14
-84 -24 -95 -21 -11 3 -38 -1 -61 -9 -22 -8 -61 -17 -86 -20 -25 -3 -79 -15
-121 -26 -41 -12 -87 -21 -101 -20 -14 1 -51 -7 -82 -17 -30 -11 -58 -17 -61
-14 -3 3 -11 2 -18 -4 -7 -5 -33 -11 -58 -12 -25 -2 -78 -12 -117 -22 -40 -11
-77 -18 -81 -15 -4 3 -57 -9 -118 -25 -60 -16 -131 -31 -159 -34 -27 -2 -61
-7 -75 -10 -14 -3 -36 -8 -50 -11 -14 -2 -32 -7 -40 -11 -27 -11 -44 -14 -100
-20 -30 -3 -89 -14 -130 -25 -133 -36 -184 -46 -235 -49 -27 -1 -58 -6 -67
-11 -9 -4 -30 -9 -45 -10 -15 -1 -32 -4 -38 -7 -5 -3 -14 -6 -20 -8 -17 -3
-54 -13 -77 -19 -13 -4 -45 -7 -73 -9 -27 -1 -90 -12 -140 -23 -125 -30 -390
-72 -415 -65 -11 3 -68 -2 -128 -11 -59 -9 -129 -18 -157 -21 -104 -12 -133
-15 -240 -30 -209 -29 -252 -33 -276 -28 -21 4 -346 -29 -419 -42 -14 -2 -63
-7 -110 -11 -375 -27 -762 -33 -929 -14 -171 20 -843 118 -849 125 -3 3 194
115 268 153 25 12 77 41 115 63 157 92 235 128 330 154 55 15 127 35 160 45
33 10 107 30 165 45 58 15 170 46 250 70 280 84 249 76 558 141 86 18 131 32
128 40 -3 7 42 20 127 38 188 38 207 44 201 60 -5 14 19 22 151 46 33 7 70 14
83 16 13 3 21 8 18 13 -3 4 41 18 97 30 132 29 138 31 132 41 -3 4 12 11 33
15 93 17 132 27 128 34 -3 4 35 16 85 26 56 12 89 24 89 32 0 7 8 13 17 13 24
0 83 23 83 32 0 4 17 10 38 13 20 3 51 12 67 20 17 7 61 18 99 24 38 5 72 15
75 20 4 5 30 13 58 17 30 4 51 11 50 18 -1 6 16 14 38 17 22 3 36 7 30 8 -18
3 19 19 63 26 23 4 42 10 42 15 0 5 34 11 75 15 41 4 72 11 69 16 -2 5 7 11
21 15 13 3 23 10 20 14 -3 5 14 11 37 15 24 4 47 14 53 21 5 8 27 15 48 16 26
1 36 5 33 14 -5 13 13 21 89 38 39 8 50 15 50 30 0 21 1 21 59 31 29 5 36 9
25 16 -11 7 -11 9 4 9 10 0 16 4 12 9 -3 6 11 13 31 17 21 4 49 13 63 20 14 8
33 14 41 14 13 0 13 1 0 10 -12 8 -9 10 13 10 17 0 27 5 27 15 0 8 8 15 18 15
13 0 14 2 4 9 -10 6 -4 10 18 14 31 7 63 30 54 40 -3 3 8 8 25 12 17 4 29 11
25 16 -3 5 4 9 15 9 12 0 20 3 19 8 -3 16 15 42 31 42 13 0 14 2 2 9 -12 8 -9
11 12 16 17 5 27 14 27 26 0 10 4 19 10 19 5 0 7 6 4 14 -3 8 1 14 8 13 40 -1
49 4 46 25 -2 18 3 24 27 28 24 4 29 10 27 28 -2 16 2 22 17 22 37 0 51 12 51
41 0 22 6 30 24 35 19 4 24 12 22 37 -1 28 3 32 27 35 22 3 27 7 22 22 -5 15
1 20 29 26 20 3 34 9 31 13 -2 4 5 15 15 24 11 9 17 23 14 32 -4 8 -2 15 4 15
6 0 9 8 8 18 -2 10 5 19 18 23 16 4 21 13 21 39 0 28 5 35 25 41 14 4 19 7 12
8 -9 1 -10 6 -4 19 5 9 7 23 5 30 -3 6 1 12 9 12 10 0 9 3 -2 10 -12 8 -10 10
9 10 19 0 23 4 19 25 -4 17 -1 25 9 25 7 0 16 6 19 14 3 8 16 17 29 20 21 5
23 9 15 32 -13 33 -13 34 5 34 9 0 18 6 21 14 3 8 17 17 30 20 14 4 22 11 19
16 -3 6 4 10 16 10 17 0 20 4 15 23 -19 67 -19 67 0 68 17 1 17 2 2 6 -24 6
-23 23 1 23 14 0 18 5 14 20 -4 16 0 20 17 20 19 0 21 4 15 29 -5 24 -2 30 14
36 12 3 21 12 21 20 0 7 6 15 14 18 9 4 13 20 11 51 -1 37 2 47 17 52 10 3 18
14 18 25 0 13 7 19 24 19 19 0 23 4 19 20 -4 16 0 20 21 20 30 0 31 3 11 60
-20 57 -20 60 15 60 27 0 29 2 24 30 -6 27 -4 30 20 30 31 0 30 -3 10 67 -18
60 -11 76 29 65 15 -4 19 -1 15 9 -20 54 -20 56 16 63 33 6 35 9 26 32 -14 35
-14 34 21 34 29 0 30 2 24 31 -4 17 -27 85 -51 151 -24 65 -44 121 -44 123 0
3 6 2 14 -1 7 -3 44 -68 82 -144 37 -77 70 -138 72 -136 4 4 -13 55 -52 159
-35 92 -34 99 9 91 19 -3 35 -4 35 -1 0 3 -13 41 -30 84 -35 89 -36 97 -14 89
9 -3 27 -9 40 -12 l25 -6 -25 64 c-13 36 -32 80 -41 97 -9 18 -14 38 -12 44 3
7 8 4 12 -8 19 -49 119 -214 132 -220 24 -9 25 -1 3 46 -11 24 -20 50 -20 57
0 6 -25 69 -55 139 -30 70 -55 130 -55 134 0 4 9 5 20 2 17 -4 90 -108 90
-127 0 -12 55 -91 65 -92 6 -1 25 -5 43 -9 25 -5 32 -3 32 9 0 9 -31 87 -69
173 -93 211 -91 203 -44 193 21 -5 39 -7 42 -4 2 2 -8 30 -24 61 -16 32 -37
75 -47 96 -25 51 -7 47 22 -5 59 -107 121 -188 142 -188 10 0 -25 90 -58 149
-27 48 -30 65 -11 58 63 -23 63 -25 12 69 -26 49 -52 95 -57 102 -6 7 -8 15
-5 18 10 10 47 -36 109 -135 32 -51 61 -91 64 -89 2 3 -18 49 -46 101 -27 53
-50 99 -50 102 0 9 55 -7 62 -19 4 -6 14 -20 23 -31 16 -19 16 -18 1 8 -16 26
-16 27 3 27 12 0 30 -18 50 -50 17 -28 31 -53 31 -55 0 -3 14 -24 30 -47 17
-22 30 -38 30 -35 0 10 -68 148 -81 163 -11 13 -9 14 17 8 16 -4 32 -9 37 -11
12 -7 81 -105 102 -146 11 -21 33 -53 48 -70 24 -28 23 -24 -8 25 -42 68 -43
76 -8 49 14 -12 28 -20 30 -17 2 2 -10 27 -27 55 -16 29 -30 55 -30 59 0 4
-18 39 -40 77 -35 61 -37 66 -11 35 17 -19 36 -46 43 -60z m2478 -1784 c0 -3
-4 -8 -10 -11 -5 -3 -10 -1 -10 4 0 6 5 11 10 11 6 0 10 -2 10 -4z m-26013
-218 c-3 -8 -6 -5 -6 6 -1 11 2 17 5 13 3 -3 4 -12 1 -19z m-10 -50 c-3 -8 -6
-5 -6 6 -1 11 2 17 5 13 3 -3 4 -12 1 -19z m-3667 -7171 c0 -2 -12 -14 -27
-28 l-28 -24 24 28 c23 25 31 32 31 24z m-130 -120 c0 -2 -17 -19 -37 -38
l-38 -34 34 38 c33 34 41 42 41 34z m-120 -110 c0 -1 -33 -34 -72 -72 l-73
-70 70 73 c64 67 75 77 75 69z m-260 -249 c-415 -405 -391 -379 -491 -539 -52
-82 -113 -179 -137 -216 -23 -38 -59 -99 -79 -138 -19 -38 -43 -81 -53 -95 -9
-14 -37 -63 -62 -110 -84 -158 -146 -271 -156 -283 -5 -7 -12 -24 -16 -39 -3
-15 -28 -56 -55 -92 -158 -208 -334 -499 -438 -721 -23 -50 -73 -158 -112
-242 -39 -83 -71 -157 -71 -163 0 -7 -7 -26 -16 -43 -10 -18 -23 -45 -31 -60
-8 -16 -13 -40 -10 -53 3 -18 -9 -45 -43 -97 -44 -67 -128 -240 -145 -297 -4
-14 -13 -35 -21 -47 -31 -49 -54 -94 -54 -106 0 -7 -11 -28 -24 -47 -13 -19
-31 -62 -40 -94 -10 -32 -24 -65 -32 -73 -27 -27 -78 -108 -82 -128 -1 -11
-38 -54 -82 -96 -44 -42 -80 -84 -80 -93 0 -10 -20 -37 -44 -61 -48 -46 -49
-52 -66 -206 -4 -46 -8 -59 -9 -34 -1 53 33 374 59 550 72 490 151 797 277
1070 231 502 590 1012 1092 1550 176 189 534 555 543 555 5 0 6 -5 2 -12 -4
-7 -3 -8 5 -4 6 4 9 11 6 16 -3 4 91 100 208 211 116 112 246 237 287 276 41
40 77 73 80 73 3 0 -47 -51 -110 -112z m32799 -1888 c36 -9 52 -8 83 5 51 20
63 19 99 -7 l29 -22 67 22 c44 14 71 18 77 12 6 -6 20 -10 32 -10 12 0 41 -7
64 -15 34 -12 50 -13 81 -4 32 10 46 9 84 -6 40 -15 52 -16 91 -5 42 12 47 11
76 -10 29 -21 34 -22 83 -10 40 10 61 10 85 1 40 -14 43 -14 35 -1 -12 19 29
10 52 -11 l22 -22 66 22 c36 11 70 21 75 21 6 0 23 -14 38 -31 24 -27 30 -29
56 -20 20 8 38 8 66 0 27 -8 47 -9 68 -1 25 8 39 6 83 -15 34 -15 65 -23 84
-20 34 5 79 -14 93 -40 9 -15 15 -15 52 -4 32 9 45 10 56 0 8 -6 27 -9 43 -6
25 5 35 1 61 -30 26 -29 36 -34 49 -26 46 29 75 25 166 -23 52 -28 105 -49
129 -51 23 -2 59 -5 81 -6 22 -2 54 -12 70 -23 18 -12 48 -19 79 -20 39 -1 53
-6 68 -24 17 -20 23 -22 52 -13 24 8 37 7 51 -3 9 -7 29 -11 44 -8 21 4 35 -4
74 -41 39 -38 53 -46 73 -41 20 5 34 -2 75 -41 36 -34 57 -47 74 -45 18 3 40
-13 93 -68 65 -68 71 -71 103 -65 33 6 38 3 92 -54 31 -34 69 -79 83 -101 19
-28 32 -39 44 -35 9 3 24 -3 35 -15 10 -11 29 -20 42 -20 12 0 23 -4 23 -9 0
-6 22 -39 49 -74 29 -38 53 -80 57 -103 4 -21 19 -58 33 -81 23 -38 29 -43 54
-37 23 5 27 3 27 -18 0 -13 12 -41 27 -63 39 -58 79 -144 87 -190 15 -78 15
-113 0 -126 -8 -6 -14 -23 -14 -37 0 -15 -11 -36 -28 -51 -16 -14 -32 -34 -35
-44 -4 -9 -18 -22 -32 -27 -14 -5 -25 -14 -25 -20 0 -6 -7 -18 -15 -27 -8 -8
-13 -19 -10 -24 4 -5 1 -9 -4 -9 -6 0 -20 -9 -30 -19 -11 -11 -29 -24 -40 -31
-12 -6 -21 -20 -21 -30 0 -11 -4 -20 -10 -20 -5 0 -10 -10 -10 -23 0 -16 -10
-26 -32 -36 -18 -7 -49 -30 -69 -50 -67 -68 -118 -110 -158 -131 -23 -11 -41
-25 -41 -30 0 -13 -51 -66 -77 -79 -13 -6 -23 -20 -23 -30 0 -10 -11 -24 -25
-31 -14 -7 -25 -17 -25 -22 0 -4 -6 -8 -14 -8 -7 0 -33 -25 -56 -56 -24 -30
-56 -62 -72 -70 -16 -8 -48 -35 -72 -58 -23 -24 -53 -47 -67 -51 -13 -4 -47
-29 -76 -56 -28 -27 -59 -49 -68 -49 -9 0 -43 -27 -77 -61 -34 -33 -77 -67
-96 -74 -18 -8 -50 -31 -70 -51 -20 -20 -49 -41 -63 -46 -15 -5 -26 -16 -25
-25 0 -9 -8 -19 -19 -22 -24 -7 -115 -71 -115 -82 0 -4 -20 -16 -44 -27 -24
-12 -53 -33 -64 -47 -11 -14 -25 -25 -31 -25 -6 0 -28 -16 -50 -35 -21 -19
-43 -35 -48 -35 -6 0 -27 -13 -47 -29 -20 -16 -51 -33 -69 -36 -18 -4 -49 -20
-69 -36 -21 -16 -57 -38 -80 -48 -24 -10 -60 -33 -82 -50 -21 -17 -55 -35 -75
-41 -20 -5 -52 -21 -71 -36 -31 -23 -209 -114 -224 -114 -10 0 -181 -83 -186
-90 -3 -4 -23 -10 -45 -14 -21 -4 -53 -15 -70 -24 -16 -9 -34 -15 -39 -14 -5
2 -16 -4 -26 -13 -9 -8 -19 -13 -22 -10 -3 3 -21 -1 -39 -9 -19 -8 -68 -25
-109 -37 -41 -12 -82 -28 -90 -34 -8 -7 -42 -20 -75 -30 -33 -10 -70 -24 -81
-31 -12 -7 -69 -25 -125 -40 -57 -14 -108 -30 -114 -34 -12 -8 -111 -41 -140
-46 -36 -6 -89 -22 -160 -47 -38 -14 -98 -31 -132 -37 -34 -6 -75 -17 -90 -25
-15 -8 -37 -15 -49 -15 -11 0 -24 -4 -30 -9 -5 -5 -40 -14 -79 -20 -38 -6 -95
-18 -125 -27 -30 -9 -91 -24 -136 -33 -44 -10 -86 -21 -93 -25 -7 -4 -35 -10
-64 -12 -29 -3 -63 -9 -77 -14 -35 -12 -200 -52 -230 -55 -14 -2 -45 -8 -70
-13 -179 -41 -245 -55 -315 -67 -44 -8 -111 -23 -150 -35 -38 -11 -88 -23
-110 -25 -22 -2 -67 -11 -100 -20 -33 -8 -78 -18 -100 -21 -22 -2 -48 -7 -59
-10 -10 -4 -30 -8 -45 -10 -133 -18 -155 -22 -316 -60 -33 -7 -76 -16 -95 -18
-87 -13 -235 -38 -240 -41 -3 -2 -33 -7 -66 -10 -71 -7 -92 -11 -209 -31 -130
-22 -135 -23 -280 -39 -27 -3 -63 -7 -80 -10 -16 -2 -48 -6 -70 -9 -22 -3 -89
-12 -150 -21 -60 -9 -123 -18 -140 -20 -16 -2 -57 -9 -90 -16 -33 -6 -91 -13
-130 -14 -80 -4 -117 -9 -133 -19 -7 -4 -12 -2 -12 5 0 7 -8 9 -22 5 -13 -4
-30 -8 -38 -11 -8 -2 -22 -6 -31 -10 -10 -3 -20 -1 -24 4 -3 6 -11 9 -16 5
-13 -8 -51 -14 -116 -19 -28 -2 -68 -8 -89 -14 -20 -6 -41 -8 -46 -5 -4 3 -32
0 -62 -6 -29 -6 -77 -13 -107 -15 -30 -2 -74 -8 -98 -14 -24 -5 -49 -7 -56 -5
-6 3 -46 -2 -87 -11 -41 -8 -100 -18 -129 -20 -62 -6 -91 -10 -134 -20 -16 -3
-39 -8 -50 -10 -11 -2 -33 -6 -50 -10 -16 -3 -44 -8 -62 -10 -17 -2 -40 -6
-50 -9 -18 -6 -123 -19 -528 -65 -93 -11 -210 -22 -258 -25 -49 -3 -92 -8 -95
-10 -6 -4 -36 -7 -212 -22 -25 -2 -63 -6 -85 -8 -49 -5 -196 -13 -377 -21
-142 -6 -243 5 -503 55 -55 10 -140 26 -190 36 -122 23 -124 24 -71 62 24 18
47 32 50 32 3 0 52 32 110 70 57 39 107 70 110 70 3 0 52 31 109 68 56 38 154
102 217 142 63 40 144 92 180 115 36 23 79 45 95 48 17 4 71 16 120 27 50 12
115 25 145 30 51 8 151 30 505 110 411 92 501 110 620 120 93 8 133 16 142 27
7 9 37 16 88 20 58 5 75 9 71 19 -4 10 3 14 23 14 49 0 91 12 91 26 0 10 15
14 55 14 41 0 55 4 55 14 0 10 16 17 45 22 25 3 42 10 39 15 -3 5 8 12 25 15
17 4 31 13 31 21 0 8 4 12 9 9 17 -11 72 6 67 20 -4 10 4 14 29 14 23 0 35 5
35 14 0 7 9 16 21 19 12 3 18 10 15 15 -3 6 12 13 34 17 22 4 38 10 35 15 -3
4 6 11 20 14 14 4 25 13 25 21 0 8 9 15 20 15 13 0 18 5 14 15 -5 11 1 15 21
15 20 0 26 4 21 15 -4 11 2 15 24 15 21 0 30 5 30 16 0 9 9 18 20 21 11 3 20
9 20 14 0 5 7 9 15 9 8 0 15 6 15 14 0 8 10 16 23 18 12 2 21 9 20 16 -2 6 8
14 22 18 14 3 25 10 25 15 0 5 7 9 15 9 8 0 15 7 15 15 0 9 9 15 25 15 16 0
25 6 25 15 0 8 4 15 10 15 5 0 7 7 4 15 -5 11 1 15 25 15 17 0 31 5 31 10 0 6
9 10 20 10 11 0 20 7 20 15 0 10 10 15 30 15 22 0 28 4 24 15 -4 8 -1 15 6 15
14 0 40 25 40 39 0 6 9 11 20 11 11 0 23 7 26 15 4 8 13 15 21 15 7 0 24 11
37 25 13 14 28 25 34 25 5 0 12 7 16 15 3 8 17 15 30 15 19 0 27 7 32 25 4 18
13 25 30 25 15 0 24 6 24 15 0 8 5 15 10 15 6 0 10 7 10 15 0 8 9 15 21 15 11
0 17 5 14 10 -3 6 1 10 10 10 9 0 22 13 28 30 6 17 15 30 20 30 11 0 107 99
107 110 0 6 7 10 15 10 8 0 15 7 15 15 0 8 9 15 20 15 13 0 18 5 14 15 -4 9 0
15 10 15 9 0 13 6 10 13 -3 9 10 18 37 27 46 16 45 14 54 93 5 48 10 57 26 57
16 0 19 5 14 20 -5 16 -2 20 14 20 16 0 21 6 21 25 0 18 5 25 20 25 15 0 20 7
20 25 0 14 5 25 10 25 6 0 10 9 10 20 0 11 5 20 10 20 6 0 10 9 10 21 0 12 8
23 19 26 13 3 22 17 26 44 4 24 12 39 21 39 8 0 14 9 14 20 0 13 7 20 20 20
17 0 20 7 20 46 0 41 2 46 19 41 17 -4 20 2 26 45 6 42 10 48 26 43 17 -6 19
-1 19 44 0 38 4 51 15 51 14 0 14 12 0 83 -2 9 1 17 7 17 6 0 7 11 4 25 -4 14
-4 36 0 50 5 20 11 24 27 19 18 -6 19 -3 15 45 -4 38 -2 51 8 51 8 0 14 16 16
43 3 40 4 42 35 41 28 -2 32 2 38 33 11 58 55 143 75 143 13 0 21 13 29 45 7
27 17 45 26 45 13 0 35 55 35 89 0 8 6 11 15 7 8 -3 21 -8 29 -12 9 -3 15 6
19 32 10 60 59 164 78 164 11 0 20 14 28 45 8 34 16 45 30 45 14 0 22 10 26
31 4 17 16 40 27 51 10 10 28 40 39 65 17 39 22 44 43 39 20 -5 25 0 37 36 7
23 20 48 29 57 9 9 24 38 34 64 18 47 19 48 41 33 23 -15 25 -14 43 17 88 149
106 177 116 177 6 0 38 25 70 56 33 30 78 71 102 90 38 31 45 34 65 23 19 -9
25 -9 34 5 7 9 20 26 29 39 9 12 21 28 26 36 7 12 13 13 35 3 33 -15 55 -15
55 -1 0 24 60 87 78 82 12 -3 30 10 54 36 41 46 46 47 74 26 31 -23 47 -18 86
27 29 35 39 41 49 31 22 -22 50 -14 86 22 19 19 40 35 47 35 6 0 33 11 60 25
54 27 77 30 106 15 14 -8 38 -4 95 16 l76 26 37 -26 38 -26 74 25 75 24 37
-26 38 -26 70 23 c56 18 76 20 94 12 18 -8 37 -6 82 9 60 19 65 19 143 -1z
m-35252 -2407 c-2 -16 -4 -3 -4 27 0 30 2 43 4 28 2 -16 2 -40 0 -55z m-10
-120 c-2 -16 -4 -5 -4 22 0 28 2 40 4 28 2 -13 2 -35 0 -50z"/>
<path d="M32360 27164 c0 -6 7 -19 16 -30 14 -18 14 -18 3 6 -14 31 -19 36
-19 24z"/>
<path d="M34280 26310 c0 -5 5 -10 11 -10 5 0 7 5 4 10 -3 6 -8 10 -11 10 -2
0 -4 -4 -4 -10z"/>
<path d="M34840 25250 c0 -5 5 -10 10 -10 6 0 10 5 10 10 0 6 -4 10 -10 10 -5
0 -10 -4 -10 -10z"/>
</g>
</svg>
